<svg width="256" height="291" viewBox="0 0 256 291" fill="none" xmlns="http://www.w3.org/2000/svg">
<path d="M127.399 290.088L23.2165 261.166L0 0.765747H255.11L231.868 261.125L127.399 290.088Z" fill="#264DE4"/>
<path d="M211.971 244.547L231.832 22.0574H127.555V267.95L211.971 244.547Z" fill="#2965F1"/>
<path d="M53.2227 118.636L56.0851 150.573H127.554V118.636H53.2227Z" fill="#EBEBEB"/>
<path d="M47.4727 53.9948L50.3759 85.9322H127.556V53.9948H47.4727Z" fill="#EBEBEB"/>
<path d="M127.556 201.58L127.416 201.617L91.8472 192.013L89.5735 166.542H57.5137L61.988 216.688L127.409 234.849L127.556 234.808V201.58Z" fill="#EBEBEB"/>
<path d="M201.683 118.636L207.448 53.9948H127.445V85.9322H172.448L169.542 118.636H127.445V150.573H166.772L163.065 191.993L127.445 201.607V234.833L192.918 216.688L193.398 211.292L200.903 127.212L201.683 118.636Z" fill="white"/>
</svg>
