<svg width="256" height="291" viewBox="0 0 256 291" fill="none" xmlns="http://www.w3.org/2000/svg">
<path d="M255.555 0.765747L232.314 261.125L127.844 290.088L23.6618 261.166L0.445312 0.765747H255.555Z" fill="#E44D26"/>
<path d="M128 267.95L212.417 244.547L232.278 22.0574H128V267.95Z" fill="#F16529"/>
<path d="M82.8212 85.9322H128.001V53.9948H47.918L48.6825 62.563L56.5319 150.573H128.001V118.636H85.7399L82.8212 85.9322Z" fill="#EBEBEB"/>
<path d="M90.0188 166.542H57.959L62.4334 216.688L127.854 234.849L128.001 234.808V201.58L127.861 201.618L92.2925 192.013L90.0188 166.542Z" fill="#EBEBEB"/>
<path d="M127.891 150.573H167.218L163.51 191.993L127.891 201.607V234.833L193.363 216.688L193.844 211.292L201.349 127.212L202.128 118.636H127.891V150.573Z" fill="white"/>
<path d="M127.891 85.8541V85.9322H205.034L205.675 78.7536L207.13 62.563L207.893 53.9948H127.891V85.8541Z" fill="white"/>
</svg>
