<svg width="25" height="25" viewBox="0 0 25 25" fill="none" xmlns="http://www.w3.org/2000/svg">
<path fill-rule="evenodd" clip-rule="evenodd" d="M12.5 0C5.59644 0 0 5.59644 0 12.5C0 16.1045 1.52562 19.3526 3.96636 21.6339C3.96262 21.6268 3.95874 21.6196 3.95475 21.6123L3.60026 19.002C3.60026 18.9876 3.62174 18.959 3.66471 18.916C3.71484 18.8659 3.75423 18.8337 3.78288 18.8193C4.04069 18.7191 4.29492 18.6045 4.54557 18.4756C4.79622 18.3467 5.01823 18.1963 5.21159 18.0244C5.41211 17.8454 5.57324 17.6377 5.69499 17.4014C5.82389 17.1579 5.89551 16.875 5.90983 16.5527L6.62956 6.85254C6.63672 6.72363 6.64388 6.61621 6.65104 6.53027C6.6582 6.44434 6.66894 6.37272 6.68327 6.31543C6.70475 6.25814 6.7334 6.21517 6.76921 6.18652C6.80501 6.15788 6.8623 6.13639 6.94108 6.12207L10.6579 5.23047C10.751 5.20182 10.8441 5.1875 10.9372 5.1875C11.0374 5.1875 11.1055 5.21973 11.1413 5.28418C11.1842 5.34863 11.2057 5.47038 11.2057 5.64941L10.8835 9.09766L10.6901 11.1602C10.6471 11.64 10.6042 12.1055 10.5612 12.5566C10.5182 13.0078 10.4753 13.4268 10.4323 13.8135C10.3965 14.193 10.3643 14.5332 10.3356 14.834C10.307 15.1276 10.2855 15.3639 10.2712 15.543L10.2497 15.8545C10.1924 16.6709 10.0348 17.4515 9.77702 18.1963C9.52637 18.9411 9.18978 19.5999 8.76725 20.1729C8.35189 20.7386 7.85417 21.1898 7.27409 21.5264C6.70117 21.863 6.0638 22.0312 5.36198 22.0312C5.00391 22.0312 4.73535 22.0241 4.55631 22.0098C4.48135 22.0035 4.41524 21.9952 4.35799 21.9849C6.5453 23.8643 9.39001 25 12.5 25C19.4036 25 25 19.4036 25 12.5C25 10.9845 24.7303 9.53195 24.2363 8.1878C24.1663 8.38016 24.091 8.5796 24.0104 8.78613C24.0033 8.79329 23.9889 8.8291 23.9674 8.89355C23.946 8.95085 23.9137 9.01888 23.8708 9.09766C23.8278 9.16927 23.7705 9.2373 23.6989 9.30176C23.6273 9.36621 23.5378 9.40202 23.4303 9.40918C23.3945 9.40202 23.3587 9.39844 23.3229 9.39844H23.2048H20.3366C20.3008 9.76367 20.265 10.1504 20.2292 10.5586C20.2005 10.9668 20.1647 11.3643 20.1217 11.751L19.3376 20.1406C19.3304 20.2051 19.3161 20.2695 19.2946 20.334C19.2803 20.3984 19.2337 20.445 19.1549 20.4736L16.1149 21.5693C16.0361 21.598 15.9323 21.6338 15.8034 21.6768C15.6745 21.7197 15.5492 21.7412 15.4274 21.7412C15.3271 21.7412 15.2376 21.7161 15.1589 21.666C15.0872 21.6159 15.0514 21.5228 15.0514 21.3867V21.3438C15.0872 20.821 15.123 20.3161 15.1589 19.8291C15.1947 19.3421 15.2269 18.8695 15.2555 18.4111L15.6423 13.3408C15.6852 12.9541 15.721 12.6032 15.7497 12.2881C15.7783 11.9658 15.7998 11.6543 15.8141 11.3535C15.8356 11.0456 15.8535 10.7376 15.8678 10.4297C15.8893 10.1146 15.9108 9.76725 15.9323 9.3877C15.696 9.38053 15.4453 9.37695 15.1803 9.37695H14.3639H12.2907C12.2119 9.37695 12.1618 9.34831 12.1403 9.29102C12.126 9.22656 12.1188 9.16927 12.1188 9.11914V9.04395L13.3005 5.93945L13.2897 5.89648C13.2897 5.86068 13.3112 5.83203 13.3542 5.81055C13.4043 5.7819 13.5117 5.76042 13.6764 5.74609C14.6647 5.6888 15.6208 5.63509 16.5446 5.58496C17.4756 5.52767 18.3923 5.47754 19.2946 5.43457C20.2041 5.3916 21.11 5.34863 22.0124 5.30566C22.2403 5.29489 22.4699 5.28435 22.701 5.27403C20.4362 2.08257 16.7113 0 12.5 0Z" fill="#0D82B4"/>
</svg>
