<svg width="516" height="516" viewBox="0 0 516 516" fill="none" xmlns="http://www.w3.org/2000/svg">
<g filter="url(#filter0_d_292_89)">
<rect width="512" height="512" transform="translate(2 1)" fill="#1A1A1A"/>
<path d="M273.2 171.075C273.2 174.275 273.067 179.608 272.8 187.075C272.533 194.542 272.4 205.208 272.4 219.075V343.075C272.4 360.675 270.133 375.342 265.6 387.075C261.333 399.075 254 408.942 243.6 416.675C233.467 424.408 219.333 431.075 201.2 436.675C200.667 436.942 200 436.275 199.2 434.675C198.667 433.342 198.8 432.542 199.6 432.275C212.667 426.675 221.733 417.608 226.8 405.075C232.133 392.542 234.8 374.942 234.8 352.275V219.875C234.8 211.075 234 204.675 232.4 200.675C230.8 196.408 227.733 194.275 223.2 194.275C221.333 194.275 219.067 194.675 216.4 195.475C214 196.275 211.333 197.342 208.4 198.675C207.333 198.942 206.4 198.275 205.6 196.675C204.8 195.075 204.8 194.142 205.6 193.875L266 165.875C266.533 165.608 266.933 165.475 267.2 165.475C268.533 165.475 269.867 166.142 271.2 167.475C272.533 168.808 273.2 170.008 273.2 171.075ZM251.2 125.875C243.733 125.875 237.733 123.742 233.2 119.475C228.933 115.208 226.8 109.208 226.8 101.475C226.8 94.5417 228.933 89.075 233.2 85.075C237.733 80.8083 243.733 78.675 251.2 78.675C258.667 78.675 264.4 80.8083 268.4 85.075C272.4 89.075 274.4 94.5417 274.4 101.475C274.4 117.742 266.667 125.875 251.2 125.875ZM345.078 328.275C337.611 328.275 331.611 326.142 327.078 321.875C322.811 317.342 320.678 311.342 320.678 303.875C320.678 296.942 322.811 291.342 327.078 287.075C331.611 282.808 337.611 280.675 345.078 280.675C352.811 280.675 358.678 282.808 362.678 287.075C366.678 291.342 368.678 296.942 368.678 303.875C368.678 311.342 366.678 317.342 362.678 321.875C358.678 326.142 352.811 328.275 345.078 328.275Z" fill="white"/>
</g>
<defs>
<filter id="filter0_d_292_89" x="0" y="0" width="516" height="516" filterUnits="userSpaceOnUse" color-interpolation-filters="sRGB">
<feFlood flood-opacity="0" result="BackgroundImageFix"/>
<feColorMatrix in="SourceAlpha" type="matrix" values="0 0 0 0 0 0 0 0 0 0 0 0 0 0 0 0 0 0 127 0" result="hardAlpha"/>
<feOffset dy="1"/>
<feGaussianBlur stdDeviation="1"/>
<feComposite in2="hardAlpha" operator="out"/>
<feColorMatrix type="matrix" values="0 0 0 0 0 0 0 0 0 0 0 0 0 0 0 0 0 0 0.05 0"/>
<feBlend mode="normal" in2="BackgroundImageFix" result="effect1_dropShadow_292_89"/>
<feBlend mode="normal" in="SourceGraphic" in2="effect1_dropShadow_292_89" result="shape"/>
</filter>
</defs>
</svg>
