<?xml version="1.0" encoding="UTF-8"?>
<svg  viewBox="0 0 44 44" version="1.1" xmlns="http://www.w3.org/2000/svg" xmlns:xlink="http://www.w3.org/1999/xlink">
    <!-- Generator: Sketch 49.2 (51160) - http://www.bohemiancoding.com/sketch -->
    <title>RSS</title>
    <desc>Created with Sketch.</desc>
    <defs></defs>
    <g id="Page-1" stroke="none" stroke-width="1" fill="none" fill-rule="evenodd">
        <g id="Social-Icons---Isolated" transform="translate(-502.000000, -617.000000)" fill="#FF9A00">
            <path d="M502.000471,654.714286 C502.000471,651.243 504.81487,648.428571 508.286118,648.428571 C511.757367,648.428571 514.571765,651.243 514.571765,654.714286 C514.571765,658.185571 511.757367,661 508.286118,661 C504.81487,661 502.000471,658.185571 502.000471,654.714286 Z M546,661 L537.619661,661 C537.619661,641.358714 521.641547,625.380429 502.000471,625.380429 L502.000471,617 C526.261497,617 546,636.738714 546,661 Z M531.333543,661 L522.953204,661 C522.953204,649.446857 513.553019,640.048143 502,640.048143 L502,631.666143 C518.174541,631.666143 531.333543,644.825286 531.333543,661 Z" id="RSS"></path>
        </g>
    </g>
</svg>